<?xml version="1.0" encoding="utf-8"?>
<!-- Generator: Adobe Illustrator 23.1.0, SVG Export Plug-In . SVG Version: 6.00 Build 0)  -->
<svg version="1.1" id="Layer_1" xmlns="http://www.w3.org/2000/svg" xmlns:xlink="http://www.w3.org/1999/xlink" x="0px" y="0px"
	 viewBox="0 0 100 100" style="enable-background:new 0 0 100 100;" xml:space="preserve">
<style type="text/css">
	.st0{fill:#E84C3D;}
	.st1{fill:#FFFFFF;}
</style>
<path class="st0" d="M91.63,100H8.37C3.75,100,0,96.25,0,91.63V8.37C0,3.75,3.75,0,8.37,0h83.26C96.25,0,100,3.75,100,8.37v83.26
	C100,96.25,96.25,100,91.63,100z"/>
<g>
	<g>
		<ellipse class="st1" cx="49.74" cy="58.63" rx="13.02" ry="13.01"/>
	</g>
</g>
<g>
	<g>
		<path class="st1" d="M91,44.16l-8.43,8.47c-1.62,1.62-4.16,1.85-6.04,0.55l-7.94-5.5c-1.14-0.8-1.77-2.13-1.68-3.51l0.16-2.2
			c0.05-0.77-0.43-1.48-1.17-1.7c-4.52-1.36-20.31-5.37-33.31,0.67c-0.65,0.3-1.03,0.99-0.93,1.72l0.34,2.62
			c0.19,1.45-0.45,2.88-1.65,3.72l-7.02,4.86c-1.92,1.33-4.52,1.06-6.12-0.65l-8.75-9.28c8.05-7,28.82-21.1,58.72-12.66
			c0,0,12.03,2.98,22.67,11.93L91,44.16z"/>
	</g>
</g>
</svg>
